<svg width="960" height="1200" viewBox="0 0 960 1200" fill="none" xmlns="http://www.w3.org/2000/svg">
  <rect width="960" height="1200" rx="56" fill="#F8F1EC"/>
  <rect x="74" y="74" width="812" height="294" rx="44" fill="url(#bg1)"/>
  <rect x="126" y="414" width="512" height="252" rx="38" fill="#FFFDF9"/>
  <rect x="538" y="752" width="270" height="180" rx="34" fill="url(#card)"/>
  <rect x="94" y="808" width="336" height="148" rx="30" fill="#FFFDF9"/>
  <rect x="116" y="964" width="214" height="148" rx="28" fill="#F2DCE8"/>
  <rect x="380" y="930" width="190" height="182" rx="28" fill="#E9DED2"/>
  <rect x="610" y="992" width="182" height="120" rx="28" fill="#F0E6DA"/>
  <circle cx="782" cy="190" r="56" fill="#FFFDF9"/>
  <circle cx="220" cy="540" r="42" fill="#F9EEF4"/>
  <path d="M188 522l68 68M256 522l-68 68" stroke="#B97D8F" stroke-width="12" stroke-linecap="round"/>
  <circle cx="274" cy="500" r="18" stroke="#B97D8F" stroke-width="10"/>
  <text x="146" y="176" fill="#7A6471" font-family="Arial, sans-serif" font-size="26" font-weight="700" letter-spacing="5">BELEZA</text>
  <text x="274" y="510" fill="#8B7580" font-family="Arial, sans-serif" font-size="22" letter-spacing="4">HERO ART</text>
  <text x="274" y="570" fill="#171715" font-family="Arial, sans-serif" font-size="64" font-weight="700">Cuidado com</text>
  <text x="274" y="638" fill="#171715" font-family="Arial, sans-serif" font-size="64" font-weight="700">mais estilo</text>
  <text x="274" y="698" fill="#65584E" font-family="Arial, sans-serif" font-size="32">Agenda, espelho e atendimento</text>
  <text x="132" y="868" fill="#8B7580" font-family="Arial, sans-serif" font-size="22" letter-spacing="4">ESTUDIO</text>
  <text x="132" y="918" fill="#171715" font-family="Arial, sans-serif" font-size="36" font-weight="600">Visual mais leve</text>
  <text x="132" y="960" fill="#171715" font-family="Arial, sans-serif" font-size="36" font-weight="600">e mais desejavel</text>
  <text x="568" y="820" fill="#F7E3EB" font-family="Arial, sans-serif" font-size="22" letter-spacing="4">DESTAQUE</text>
  <text x="568" y="890" fill="#fff" font-family="Arial, sans-serif" font-size="34" font-weight="600">Estilo e agenda</text>
  <defs>
    <linearGradient id="bg1" x1="74" y1="74" x2="886" y2="368" gradientUnits="userSpaceOnUse">
      <stop stop-color="#FAEDF4"/>
      <stop offset="1" stop-color="#EFE4DA"/>
    </linearGradient>
    <linearGradient id="card" x1="538" y1="752" x2="808" y2="932" gradientUnits="userSpaceOnUse">
      <stop stop-color="#B97D8F"/>
      <stop offset="1" stop-color="#8D715E"/>
    </linearGradient>
  </defs>
</svg>
